<?xml version="1.0" encoding="utf-8"?>
<!-- Generator: Adobe Illustrator 23.0.3, SVG Export Plug-In . SVG Version: 6.00 Build 0)  -->
<svg version="1.1" id="Capa_1" xmlns="http://www.w3.org/2000/svg" xmlns:xlink="http://www.w3.org/1999/xlink" x="0px" y="0px"
	 viewBox="0 0 512 512" style="enable-background:new 0 0 512 512;" xml:space="preserve">
<style type="text/css">
	.st0{fill:#FFFFFF;}
</style>
<path class="st0" d="M200.5,72c-0.6,0-1.3-0.1-1.9-0.2c-0.6-0.1-1.3-0.3-1.9-0.6c-0.6-0.2-1.2-0.6-1.7-0.9c-0.5-0.4-1.1-0.8-1.5-1.2
	c-0.5-0.5-0.9-1-1.2-1.5c-0.4-0.6-0.7-1.1-0.9-1.7c-0.2-0.6-0.4-1.2-0.6-1.9c-0.1-0.6-0.2-1.3-0.2-1.9c0-0.7,0.1-1.3,0.2-2
	c0.1-0.6,0.3-1.3,0.6-1.9c0.2-0.6,0.6-1.2,0.9-1.7c0.4-0.5,0.8-1.1,1.2-1.5c0.5-0.5,1-0.9,1.5-1.2c0.5-0.4,1.1-0.7,1.7-0.9
	c0.6-0.2,1.2-0.4,1.9-0.6c3.2-0.7,6.7,0.4,9,2.7c0.5,0.5,0.9,1,1.2,1.5c0.4,0.5,0.7,1.1,0.9,1.7c0.2,0.6,0.4,1.2,0.6,1.9
	c0.1,0.7,0.2,1.3,0.2,2c0,0.6-0.1,1.3-0.2,1.9c-0.1,0.6-0.3,1.3-0.6,1.9c-0.2,0.6-0.6,1.2-0.9,1.7c-0.4,0.5-0.8,1-1.2,1.5
	C205.8,70.9,203.2,72,200.5,72z"/>
<path class="st0" d="M354,0H157.3c-25,0-45.3,20.3-45.3,45.3v421.3c0,25,20.3,45.3,45.3,45.3H354c25,0,45.3-20.3,45.3-45.3V45.3
	C399.4,20.3,379,0,354,0z M157.3,20H354c14,0,25.3,11.4,25.3,25.3V52h-131c-5.5,0-10,4.5-10,10c0,5.5,4.5,10,10,10h131v358H132V72
	h26.4c5.5,0,10-4.5,10-10c0-5.5-4.5-10-10-10H132v-6.6C132,31.4,143.4,20,157.3,20z M379.4,466.7c0,14-11.4,25.3-25.3,25.3H157.3
	c-14,0-25.3-11.4-25.3-25.3V450h247.4V466.7z"/>
<path class="st0" d="M234.8,225.6h-70.6c-5.5,0-10-4.5-10-10v-70.6c0-5.5,4.5-10,10-10h70.6c5.5,0,10,4.5,10,10v70.6
	C244.8,221.1,240.3,225.6,234.8,225.6z M174.3,205.6h50.6v-50.6h-50.6V205.6z"/>
<path class="st0" d="M347.1,225.6h-70.6c-5.5,0-10-4.5-10-10v-70.6c0-5.5,4.5-10,10-10h70.6c5.5,0,10,4.5,10,10v70.6
	C357.1,221.1,352.7,225.6,347.1,225.6z M286.6,205.6h50.6v-50.6h-50.6V205.6z"/>
<path class="st0" d="M234.8,336.9h-70.6c-5.5,0-10-4.5-10-10v-70.6c0-5.5,4.5-10,10-10h70.6c5.5,0,10,4.5,10,10v70.6
	C244.8,332.4,240.3,336.9,234.8,336.9z M174.3,316.9h50.6v-50.6h-50.6V316.9z"/>
<path class="st0" d="M347.1,336.9h-70.6c-5.5,0-10-4.5-10-10v-70.6c0-5.5,4.5-10,10-10h70.6c5.5,0,10,4.5,10,10v70.6
	C357.1,332.4,352.7,336.9,347.1,336.9z M286.6,316.9h50.6v-50.6h-50.6V316.9z"/>
<path class="st0" d="M268,481h-24.7c-5.5,0-10-4.5-10-10s4.5-10,10-10H268c5.5,0,10,4.5,10,10S273.5,481,268,481z"/>
<path class="st0" d="M288.7,381h-66c-5.5,0-10-4.5-10-10s4.5-10,10-10h66c5.5,0,10,4.5,10,10S294.2,381,288.7,381z"/>
</svg>
