<?xml version="1.0" encoding="utf-8"?>
<!-- Generator: Adobe Illustrator 23.0.3, SVG Export Plug-In . SVG Version: 6.00 Build 0)  -->
<svg version="1.1" id="Capa_1" xmlns="http://www.w3.org/2000/svg" xmlns:xlink="http://www.w3.org/1999/xlink" x="0px" y="0px"
	 viewBox="0 0 512 512" style="enable-background:new 0 0 512 512;" xml:space="preserve">
<style type="text/css">
	.st0{fill:#FFFFFF;}
</style>
<g>
	<g>
		<path class="st0" d="M150.6,0L54.9,95.7V512h402.2V0H150.6z M146.2,26v65.3H80.9L146.2,26z M441.9,496.8L441.9,496.8H70.1V106.5
			h91.2V15.2h280.5V496.8z"/>
	</g>
</g>
<g>
	<g>
		<path class="st0" d="M405.7,306.2V221h-85.2v34.5l0,0h-23.7l-31-31v-23.7H357v-80.1H159.3v80.1h91.2v23.7l-31,31h-23.7V221h-85.2
			v85.2h85.2v-35.5h23.7l31,31v23.7h-91.2v80.1H357v-80.1h-91.2v-23.7l31-31h23.7v35.5L405.7,306.2L405.7,306.2z M335.8,236.2h54.7
			V291h-54.7V236.2z M180.6,291h-54.7v-54.7h54.7V291z M174.6,185.5v-49.7h167.3v49.7H174.6z M341.8,340.7v49.7H174.6v-49.7
			L341.8,340.7L341.8,340.7z M258.2,287.8l-24.7-24.7l24.7-24.7l24.7,24.7L258.2,287.8z"/>
	</g>
</g>
<g>
	<g>
		<g>
			<polygon class="st0" points="338,30.4 338,45.6 411.5,45.6 411.5,88.7 426.7,88.7 426.7,30.4 			"/>
			<rect x="411.5" y="103.9" class="st0" width="15.2" height="15.2"/>
		</g>
	</g>
</g>
<g>
	<g>
		<g>
			<rect x="85.3" y="392.9" class="st0" width="15.2" height="15.2"/>
			<polygon class="st0" points="100.5,466.4 100.5,423.3 85.3,423.3 85.3,481.6 174,481.6 174,466.4 			"/>
		</g>
	</g>
</g>
<g>
	<g>
		<g>
			<rect x="250.6" y="450.7" class="st0" width="15.2" height="15.2"/>
			<rect x="250.6" y="420.2" class="st0" width="15.2" height="15.2"/>
		</g>
	</g>
</g>
<g>
	<g>
		<g>
			<rect x="250.6" y="58.3" class="st0" width="15.2" height="15.2"/>
			<rect x="250.6" y="88.7" class="st0" width="15.2" height="15.2"/>
			<rect x="250.6" y="27.9" class="st0" width="15.2" height="15.2"/>
		</g>
	</g>
</g>
<g>
	<g>
		<g>
			<rect x="197.4" y="153.1" class="st0" width="15.2" height="15.2"/>
			<rect x="283.5" y="153.1" class="st0" width="35.5" height="15.2"/>
			<rect x="227.8" y="153.1" class="st0" width="40.6" height="15.2"/>
		</g>
	</g>
</g>
<g>
	<g>
		<g>
			<rect x="197.4" y="357.9" class="st0" width="60.8" height="15.2"/>
			<rect x="273.4" y="357.9" class="st0" width="15.2" height="15.2"/>
			<rect x="303.8" y="357.9" class="st0" width="15.2" height="15.2"/>
		</g>
	</g>
</g>
<g>
	<g>
		<g>
			<rect x="411.8" y="436.5" class="st0" width="15.2" height="37.5"/>
			<rect x="411.8" y="405" class="st0" width="15.2" height="16.2"/>
		</g>
	</g>
</g>
</svg>
