<?xml version="1.0" encoding="utf-8"?>
<!-- Generator: Adobe Illustrator 23.0.3, SVG Export Plug-In . SVG Version: 6.00 Build 0)  -->
<svg version="1.1" id="Capa_1" xmlns="http://www.w3.org/2000/svg" xmlns:xlink="http://www.w3.org/1999/xlink" x="0px" y="0px"
	 viewBox="0 0 496 496" style="enable-background:new 0 0 496 496;" xml:space="preserve">
<style type="text/css">
	.st0{fill:#FFFFFF;}
</style>
<path class="st0" d="M120,208v-16c-39.7,0-72-32.3-72-72H32C32,168.5,71.5,208,120,208z"/>
<path class="st0" d="M120,176c30.9,0,56-25.1,56-56s-25.1-56-56-56s-56,25.1-56,56S89.1,176,120,176z M120,80c22.1,0,40,17.9,40,40
	s-17.9,40-40,40s-40-17.9-40-40S97.9,80,120,80z"/>
<path class="st0" d="M120,144c13.2,0,24-10.8,24-24s-10.8-24-24-24s-24,10.8-24,24S106.8,144,120,144z M120,112c4.4,0,8,3.6,8,8
	s-3.6,8-8,8s-8-3.6-8-8S115.6,112,120,112z"/>
<path class="st0" d="M496,381.7v-59.4l-21.6-7.6c-2.4-8-5.6-15.7-9.5-23l10-20.6l-7.7-7.7c-3.6-4.7-9.4-10.9-13.9-15.4
	c-5.5-5.6-11.9-11.7-16.2-15.4l-53.2-46.5l4.6-13.7l18.5,9.3l30.8-30.8l-9.3-18.5l19.6-6.6V82.2l-19.6-6.5l9.3-18.5l-30.8-30.8
	l-18.5,9.3L381.8,16h-43.5l-6.5,19.6l-18.5-9.3l-30.8,30.8l9.3,18.5L272,82.2v6.1l-65.8-57.6C183.5,10.9,154.4,0,124.3,0v0.2
	c-1.4,0-2.8-0.2-4.3-0.2C53.8,0,0,53.8,0,120c0,1.5,0.2,2.9,0.2,4.3H0c0,30.1,10.9,59.2,30.8,81.8L88.4,272h-6.1l-6.5,19.6
	l-18.5-9.3l-30.8,30.8l9.3,18.5L16,338.2v43.5l19.6,6.5l-9.3,18.5l30.8,30.8l18.5-9.3l6.5,19.7h43.5l6.5-19.6l18.5,9.3l30.8-30.8
	l-9.3-18.5l13.8-4.6l46.4,53.1c3.6,4.2,9.1,9.9,14.2,15.1c4.9,4.9,11.6,11.3,16.6,15.2l7.8,7.8l20.6-10c7.3,3.9,15,7.1,23,9.5
	l7.6,21.6h59.4l7.6-21.6c8-2.4,15.7-5.6,23-9.5l20.6,10l42-42l-10-20.6c3.9-7.3,7.1-15,9.5-23L496,381.7z M239.2,291.8
	c-3.9,7.3-7.1,15-9.5,23l-21.6,7.6v59.4l21.6,7.6c2.4,8,5.6,15.7,9.5,23l-2.4,5L73.4,230.6c14.3,6.1,30.1,9.4,46.6,9.4
	c66.2,0,120-53.8,120-120c0-16.5-3.4-32.3-9.4-46.6l186.8,163.3l-5.1,2.5c-7.3-3.9-15-7.1-23-9.5l-7.6-21.6h-59.4l-7.6,21.6
	c-8,2.4-15.7,5.6-23,9.5l-20.6-10l-42,42L239.2,291.8z M288,93.8l18.4-6.1l1.3-3.5c0.4-1,0.8-2,1.2-3l1.6-3.5l-8.6-17.3l14.5-14.5
	l17.3,8.6l3.5-1.6c1-0.4,2-0.8,3-1.2l3.5-1.3l6.1-18.4h20.5l6.1,18.4l3.5,1.3c1,0.4,2,0.8,3,1.2l3.5,1.6l17.3-8.6l14.5,14.5
	l-8.6,17.3l1.6,3.5c0.4,1,0.8,2,1.2,3l1.3,3.5l18.4,6.1v20.5l-18.4,6.1l-1.3,3.5c-0.4,1-0.8,2-1.2,3l-1.6,3.5l8.6,17.3l-14.5,14.5
	l-17.3-8.6l-3.5,1.6c-1,0.4-2,0.8-3,1.2l-3.5,1.3l-5.7,17L288,102.3V93.8z M120,16c57.3,0,104,46.7,104,104s-46.7,104-104,104
	S16,177.3,16,120S62.7,16,120,16z M157.6,376.4l-1.3,3.5c-0.4,1-0.8,2-1.2,3l-1.6,3.5l8.6,17.3l-14.5,14.5l-17.3-8.6l-3.5,1.6
	c-1,0.4-2,0.8-3,1.2l-3.5,1.3l-6.1,18.4H93.8l-6.1-18.4l-3.5-1.3c-1-0.4-2-0.8-3-1.2l-3.5-1.6l-17.3,8.6l-14.5-14.5l8.6-17.3
	l-1.6-3.5c-0.4-1-0.8-2-1.2-3l-1.3-3.5L32,370.2v-20.5l18.4-6.1l1.3-3.5c0.4-1,0.8-2,1.2-3l1.6-3.5l-8.6-17.3l14.5-14.5l17.3,8.6
	l3.5-1.6c1-0.4,2-0.8,3-1.2l3.5-1.3l6.1-18.4h8.6l72.3,82.7L157.6,376.4z M461.2,376.9l-1.1,4.1c-2.5,9.5-6.3,18.6-11.1,27l-2.1,3.7
	l8.7,17.9l-25.9,25.9l-17.9-8.7l-3.7,2.1c-8.4,4.8-17.5,8.6-27,11.1l-4.1,1.1l-6.6,18.8h-36.6l-6.6-18.8l-4.1-1.1
	c-9.5-2.5-18.6-6.3-27-11.1l-3.7-2.1l-17.9,8.7l-25.9-25.9l8.7-17.9l-2.1-3.7c-4.8-8.4-8.6-17.5-11.1-27l-1.1-4.1l-18.8-6.6v-36.6
	l18.8-6.6l1.1-4.1c2.5-9.5,6.3-18.6,11.1-27l2.1-3.7l-8.7-17.9l25.9-25.9l17.9,8.7l3.7-2.1c8.4-4.8,17.5-8.6,27-11.1l4.1-1.1
	l6.6-18.8h36.6l6.6,18.8l4.1,1.1c9.5,2.5,18.6,6.3,27,11.1l3.7,2.1l17.9-8.7l25.9,25.9l-8.7,17.9l2.1,3.7c4.8,8.4,8.6,17.5,11.1,27
	l1.1,4.1l18.8,6.6v36.6L461.2,376.9z"/>
<path class="st0" d="M352,272c-44.1,0-80,35.9-80,80s35.9,80,80,80s80-35.9,80-80S396.1,272,352,272z M352,416
	c-35.3,0-64-28.7-64-64s28.7-64,64-64s64,28.7,64,64S387.3,416,352,416z"/>
<path class="st0" d="M352,304c-26.5,0-48,21.5-48,48s21.5,48,48,48s48-21.5,48-48S378.5,304,352,304z M352,384
	c-17.6,0-32-14.4-32-32s14.4-32,32-32s32,14.4,32,32S369.6,384,352,384z"/>
<path class="st0" d="M400,104c0-22.1-17.9-40-40-40s-40,17.9-40,40s17.9,40,40,40S400,126.1,400,104z M336,104c0-13.2,10.8-24,24-24
	s24,10.8,24,24s-10.8,24-24,24S336,117.2,336,104z"/>
<path class="st0" d="M64,360c0,22.1,17.9,40,40,40s40-17.9,40-40s-17.9-40-40-40S64,337.9,64,360z M128,360c0,13.2-10.8,24-24,24
	s-24-10.8-24-24s10.8-24,24-24S128,346.8,128,360z"/>
</svg>
