<?xml version="1.0" encoding="utf-8"?>
<!-- Generator: Adobe Illustrator 23.0.3, SVG Export Plug-In . SVG Version: 6.00 Build 0)  -->
<svg version="1.1" id="Capa_1" xmlns="http://www.w3.org/2000/svg" xmlns:xlink="http://www.w3.org/1999/xlink" x="0px" y="0px"
	 viewBox="0 0 511 510.9" style="enable-background:new 0 0 511 510.9;" xml:space="preserve">
<style type="text/css">
	.st0{fill:#FFFFFF;}
</style>
<path class="st0" d="M437.4,75.8C389,26.7,484.9,123.9,437.4,75.8C373.6,11.2,275.8-15.1,188.1,8.6C106.4,30.8,39.2,95.7,12.9,176
	c-16,48.8-17.2,102.4-2.8,151.7c23.2,79.1,86.9,144.2,164.8,170.4c83.2,28,178.3,9.1,245.3-47.3c18.7-15.7,35.2-34.3,48.6-54.6
	c1.1-1.7,2.2-3.4,3.2-5c3-4.8,1.6-11-3.2-14c-4.8-3-11-1.6-14,3.2c-1,1.6-2,3.1-3,4.6c-7.4,11.2-15.8,21.8-25,31.6l-37.7-37.7
	c10.9-11.8,20.2-24.9,27.7-39.1c7.6-14.6,13.3-30.3,16.7-46.4c1.7-8.1,2.9-16.3,3.4-24.5h53.4c-0.8,14.2-2.9,28.2-6.1,41.9
	c-1.3,5.5,2.1,11,7.5,12.3c5.5,1.3,11-2.1,12.3-7.5C524.6,230,499.1,138.3,437.4,75.8z M377.9,120.7c-12.1-11-25.6-20.4-40.2-27.8
	c-15-7.6-31.1-13.1-47.7-16.3c-8.4-1.6-16.8-2.6-25.3-3V20.3c56.6,2.2,109.5,24.2,150.9,62.8L377.9,120.7z M244.3,73.7
	c-7,0.4-13.9,1.2-20.7,2.4c-5.5,1-9.2,6.3-8.3,11.8c1,5.5,6.3,9.2,11.8,8.3c21.9-3.9,44.9-3.5,66.6,1.8c18.6,4.5,36.3,12.6,52,23.6
	c15.6,10.9,29.3,24.5,40.3,40c11.1,15.6,19.5,33.1,24.6,51.6c3.7,13.3,5.6,27.1,5.7,40.9c0.3,43.8-17,87-48.6,117.6
	c-57.7,55.8-153.8,59.6-215.4,8.1c-47.8-40-69-108.2-52.1-168.2c9.5-33.6,29.7-63.9,57.6-85.1c4.5-3.4,5.4-9.8,2-14.3
	c-3.4-4.5-9.8-5.4-14.3-2c-4.7,3.6-9.3,7.4-13.7,11.5L94.3,83.9c41.1-38.7,93.7-61,150-63.6L244.3,73.7L244.3,73.7z M244.3,490.4
	c-54.7-2.5-106.2-23.8-146.8-60.5l37.7-37.7c12.7,11.2,26.9,20.6,42.2,27.8c13.2,6.2,27.1,10.9,41.3,13.8c8.4,1.7,17,2.8,25.5,3.3
	L244.3,490.4L244.3,490.4z M80.1,98.5l37.7,37.7c-10.3,11.8-19,25-25.9,39.1c-7.2,14.6-12.3,30.1-15.3,46.1c-1.7,8.9-2.7,17.9-3,27
	H20.2C21.9,192.6,42.9,140,80.1,98.5z M73.9,268.7c1.1,15.2,4.1,30.4,9,44.8c5.3,15.7,12.8,30.7,22.1,44.4
	c4.8,7,10.1,13.6,15.8,19.9l-37.7,37.7c-37.6-40.4-59.5-91.8-62.6-146.9H73.9z M264.7,437.2c15.9-0.8,31.6-3.7,46.8-8.5
	c15.1-4.9,29.6-11.8,42.9-20.4c7.1-4.6,13.8-9.7,20.2-15.2l37.7,37.7c-40.9,36.7-92.7,57.6-147.6,59.8V437.2z M437.3,248.4
	c-0.6-15.7-3.2-31.3-7.8-46.4c-4.9-16.1-12.1-31.5-21.3-45.6c-4.8-7.4-10.2-14.5-16.1-21.1l37.7-37.7
	c37.7,41.6,59.1,94.6,60.7,150.8L437.3,248.4L437.3,248.4z"/>
<path class="st0" d="M246,194.3c0-4.8-5.6-6-9.4-6c-3.8,0-9.4,1.3-9.4,6v85.4c0,8.3-2.5,17.1-10.6,20.8c-7.8,3.6-20.1,3.2-26.6-2.8
	c-6.1-5.6-6.5-14.9-6.5-23.2c0-26,0.1-51.9,0.1-77.9c0-1.7,0-3.4-0.8-4.9c-1.7-3-5.7-3.3-9.2-3.2c-3.3,0.1-7.3,0.7-8.5,3.8
	c-0.4,1-0.4,2.1-0.4,3.2c0,26.1,0.1,52.2,0.1,78.4c0,11.1,0.3,23,7,31.8c10.1,13.3,30.9,15.8,46.2,12.4c7.7-1.7,15.4-5.6,20.4-11.9
	c6-7.4,7.7-17.2,7.7-26.5V194.3z"/>
<path class="st0" d="M292.2,253.2c0,0-30.7,52.4-30.8,52.6c-5.5,9.4,11.8,17.7,17.1,8.7l26-47.3c0,0,26.2,47,26.3,47.3
	c5.2,9.3,22.4,0.7,16.9-8.7L317,253.2c0,0,29.8-52.2,29.9-52.3c6-10.6-11.8-18.2-17.4-7.8l-24.9,45.5c0,0-24.5-45.4-24.5-45.5
	c-5.5-10.2-23.8-3-17.6,7.8L292.2,253.2z"/>
<path class="st0" d="M177.2,101.2c2.1,5.2,8.3,7.7,13.4,5.6c5.3-2.2,7.5-8.4,5.3-13.5c-2.1-5.2-8.5-7.8-13.6-5.5
	C177.2,90,175.1,96.1,177.2,101.2z"/>
<path class="st0" d="M491,346.7c-2.1-5.1-8.1-7.7-13.3-5.6c-5.1,2.1-7.7,8.1-5.6,13.3l0.1,0.3c2.2,5.4,8.8,7.9,14,5.3
	c4.7-2.4,6.8-8.1,4.8-12.9L491,346.7z"/>
</svg>
